<svg width="112" height="110" viewBox="0 0 112 110" fill="none" xmlns="http://www.w3.org/2000/svg">
<g clip-path="url(#clip0_48_323)">
<path d="M111.998 54.8548C111.998 58.9839 107.396 62.5426 106.514 66.4001C105.613 70.3934 108.196 75.5956 106.46 79.195C104.725 82.7945 99.0037 84.0644 96.5024 87.2089C94.0011 90.3532 94.0688 96.1871 90.9168 98.7135C87.7647 101.24 82.1046 99.8543 78.478 101.62C74.8515 103.386 72.445 108.649 68.4591 109.559C64.6021 110.435 60.1215 106.748 56 106.748C51.8786 106.748 47.398 110.435 43.5341 109.559C39.5551 108.649 37.1147 103.359 33.5152 101.62C29.9158 99.8816 24.2218 101.226 21.0832 98.7135C17.9447 96.2006 18.0126 90.3668 15.4909 87.2089C12.9692 84.0509 7.29546 82.8556 5.53302 79.195C3.77057 75.5344 6.38714 70.3662 5.48557 66.4001C4.60435 62.5358 -0.00512695 58.9771 -0.00512695 54.8548C-0.00512695 50.7324 4.59757 47.1669 5.4788 43.3094C6.38035 39.3161 3.79091 34.1139 5.52625 30.5144C7.26158 26.915 12.9827 25.645 15.4841 22.5006C17.9854 19.3562 17.9243 13.5156 21.0764 10.996C24.2285 8.47644 29.8887 9.8551 33.5085 8.08933C37.1283 6.32357 39.5483 1.06026 43.5273 0.150212C47.3911 -0.725875 51.8718 2.96184 55.9932 2.96184C60.1147 2.96184 64.5953 -0.725875 68.4524 0.150212C72.4382 1.06026 74.8785 6.35074 78.4711 8.08933C82.0639 9.82793 87.7715 8.48323 90.9101 10.996C94.0485 13.5088 93.9807 19.3426 96.4956 22.5006C99.0105 25.6586 104.691 26.8539 106.453 30.5144C108.216 34.175 105.606 39.3432 106.508 43.3094C107.396 47.1601 111.998 50.7187 111.998 54.8548Z" fill="#33854E"/>
<path d="M102.172 64.2021C107.337 38.653 90.8513 13.7465 65.3502 8.57163C39.8491 3.39683 14.9892 19.9134 9.824 45.4625C4.65891 71.0116 21.1446 95.9182 46.6457 101.093C72.1469 106.268 97.0068 89.7512 102.172 64.2021Z" fill="#F9FBFC"/>
<path d="M26.4877 48.7545V54.1008H35.105V58.7607H26.4877V64.4321H36.1868V69.381H20.3223V43.8418H36.1868V48.7545H26.4877Z" fill="#33854E"/>
<path d="M51.334 43.5898C54.579 43.5898 57.2591 44.4447 59.3745 46.1546C61.5137 47.8644 62.8959 50.1763 63.5208 53.0903H56.9947C56.514 51.9103 55.7689 50.9831 54.7593 50.3088C53.7738 49.6344 52.596 49.2973 51.2258 49.2973C49.423 49.2973 47.9688 49.9596 46.8632 51.2841C45.7574 52.6086 45.2046 54.3787 45.2046 56.5943C45.2046 58.8098 45.7574 60.5799 46.8632 61.9044C47.9688 63.2049 49.423 63.855 51.2258 63.855C52.596 63.855 53.7738 63.5179 54.7593 62.8436C55.7689 62.1693 56.514 61.2541 56.9947 60.0982H63.5208C62.8959 62.988 61.5137 65.3 59.3745 67.0339C57.2591 68.7437 54.579 69.5986 51.334 69.5986C48.8582 69.5986 46.6828 69.0567 44.808 67.9731C42.9331 66.8653 41.4788 65.324 40.4452 63.3493C39.4357 61.3746 38.9309 59.1229 38.9309 56.5943C38.9309 54.0656 39.4357 51.8139 40.4452 49.8391C41.4788 47.8644 42.9331 46.3353 44.808 45.2515C46.6828 44.1437 48.8582 43.5898 51.334 43.5898Z" fill="#33854E"/>
<path d="M79.0909 43.4453C81.4945 43.4453 83.6699 44.0112 85.6169 45.143C87.588 46.2509 89.1384 47.8042 90.268 49.8029C91.3978 51.7778 91.9627 54.0173 91.9627 56.5219C91.9627 59.0265 91.3858 61.2782 90.232 63.2769C89.1022 65.2758 87.5518 66.8411 85.5808 67.9731C83.6338 69.0808 81.4705 69.6346 79.0909 69.6346C76.7111 69.6346 74.5358 69.0808 72.5648 67.9731C70.6178 66.8411 69.0674 65.2758 67.9136 63.2769C66.7838 61.2782 66.219 59.0265 66.219 56.5219C66.219 54.0173 66.7838 51.7778 67.9136 49.8029C69.0674 47.8042 70.6178 46.2509 72.5648 45.143C74.5358 44.0112 76.7111 43.4453 79.0909 43.4453ZM79.0909 49.1889C77.0717 49.1889 75.4613 49.8512 74.2593 51.1756C73.0815 52.4761 72.4927 54.2582 72.4927 56.5219C72.4927 58.7615 73.0815 60.5436 74.2593 61.8682C75.4613 63.1926 77.0717 63.8549 79.0909 63.8549C81.0859 63.8549 82.6844 63.1926 83.8862 61.8682C85.088 60.5436 85.689 58.7615 85.689 56.5219C85.689 54.2822 85.088 52.5002 83.8862 51.1756C82.7084 49.8512 81.1099 49.1889 79.0909 49.1889Z" fill="#33854E"/>
<path d="M12.7249 88.6074L15.6804 79.2353L12.7249 69.8633H99.2745L96.3259 79.2353L99.2745 88.6074H12.7249Z" fill="#009387"/>
<path d="M97.4242 71.2224L94.8958 79.2363L97.4175 87.2501H14.5757L17.0973 79.2363L14.5757 71.2224H97.4242ZM101.119 68.5059H10.8745L11.9863 72.0375L14.23 79.2363L11.9591 86.4351L10.8474 89.9666H101.119L100.007 86.4351L97.7428 79.2363L100.007 72.0375L101.119 68.5059Z" fill="#F9FBFC"/>
<path d="M61.2535 27.0111L56 28.5188C55.9997 26.9159 56.52 25.3565 57.4825 24.0762C58.4449 22.7958 59.7971 21.8641 61.3349 21.4217L66.5882 19.9141C66.5897 21.5171 66.0698 23.0771 65.1072 24.3577C64.1446 25.6382 62.7917 26.5697 61.2535 27.0111Z" fill="#009387"/>
<path d="M50.6581 21.3944L45.4115 19.8867C45.4041 21.4945 45.9213 23.0606 46.8844 24.3466C47.8473 25.6327 49.2035 26.5682 50.7462 27.0109L55.9996 28.5185C56.0054 26.9102 55.4869 25.344 54.5227 24.0581C53.5585 22.7721 52.2015 21.8368 50.6581 21.3944Z" fill="#009387"/>
<path d="M61.2535 33.4406L56 34.9484C55.9997 33.3456 56.52 31.7862 57.4825 30.5059C58.4449 29.2255 59.7971 28.2938 61.3349 27.8514L66.5882 26.3438C66.5897 27.9468 66.0698 29.5067 65.1072 30.7872C64.1446 32.0678 62.7917 32.9994 61.2535 33.4406Z" fill="#009387"/>
<path d="M50.6578 27.8514L45.4111 26.3301C45.4098 27.9332 45.9297 29.4931 46.8923 30.7737C47.8549 32.0543 49.2077 32.9858 50.7459 33.4271L55.9993 34.9348C55.9963 33.3335 55.4736 31.7765 54.5101 30.4988C53.5466 29.2211 52.1946 28.2919 50.6578 27.8514Z" fill="#009387"/>
<path d="M56.0005 24.2133C55.2234 23.4361 54.6067 22.513 54.1861 21.4969C53.7653 20.4807 53.5488 19.3913 53.5488 18.2912C53.5488 17.1911 53.7653 16.1017 54.1861 15.0856C54.6067 14.0694 55.2234 13.1463 56.0005 12.3691C56.7778 13.1463 57.3944 14.0694 57.8151 15.0856C58.2357 16.1017 58.4523 17.1911 58.4523 18.2912C58.4523 19.3913 58.2357 20.4807 57.8151 21.4969C57.3944 22.513 56.7778 23.4361 56.0005 24.2133Z" fill="#009387"/>
<path d="M29.4817 75.5781V77.4198H25.5619V79.5188H28.5896V81.2793H25.5619V85.1523H23.2505V75.5781H29.4817Z" fill="#F9FBFC"/>
<path d="M35.5752 85.1523L33.5072 81.5366H32.9801V85.1523H30.6687V75.5781H34.6156C35.3724 75.5781 36.0123 75.7091 36.5349 75.9708C37.0576 76.2327 37.4496 76.5938 37.7109 77.0542C37.9722 77.5056 38.1029 78.0247 38.1029 78.6115C38.1029 79.3067 37.9091 79.898 37.5216 80.3856C37.1431 80.873 36.5889 81.2071 35.8591 81.3876L38.1299 85.1523H35.5752ZM32.9801 79.9522H34.4129C34.8724 79.9522 35.2103 79.8529 35.4266 79.6542C35.6429 79.4466 35.7509 79.1442 35.7509 78.7469C35.7509 78.3678 35.6384 78.0699 35.4131 77.8532C35.1967 77.6366 34.8634 77.5281 34.4129 77.5281H32.9801V79.9522Z" fill="#F9FBFC"/>
<path d="M41.5731 75.5781V85.1523H39.2617V75.5781H41.5731Z" fill="#F9FBFC"/>
<path d="M45.4803 77.4198V79.424H48.7108V81.1709H45.4803V83.297H49.1163V85.1523H43.1689V75.5781H49.1163V77.4198H45.4803Z" fill="#F9FBFC"/>
<path d="M58.9174 85.1523H56.606L52.7402 79.2751V85.1523H50.429V75.5781H52.7402L56.606 81.5096V75.5781H58.9174V85.1523Z" fill="#F9FBFC"/>
<path d="M69.1102 80.3449C69.1102 81.2838 68.9074 82.119 68.5019 82.8502C68.1054 83.5724 67.5288 84.1366 66.7719 84.5429C66.0239 84.9491 65.1409 85.1523 64.1226 85.1523H60.5137V75.5781H64.1226C65.1499 75.5781 66.0374 75.7767 66.7854 76.174C67.5333 76.5712 68.1054 77.131 68.5019 77.8532C68.9074 78.5754 69.1102 79.406 69.1102 80.3449ZM63.9199 83.0804C64.8209 83.0804 65.5194 82.8412 66.0149 82.3627C66.5196 81.8842 66.7719 81.2116 66.7719 80.3449C66.7719 79.4783 66.5196 78.8056 66.0149 78.3271C65.5194 77.8487 64.8209 77.6094 63.9199 77.6094H62.825V83.0804H63.9199Z" fill="#F9FBFC"/>
<path d="M72.738 83.3783H75.8198V85.1523H70.4268V75.5781H72.738V83.3783Z" fill="#F9FBFC"/>
<path d="M85.1399 75.5781L81.8283 81.9699V85.1523H79.5035V81.9699L76.1919 75.5781H78.8411L80.6794 79.4783L82.5176 75.5781H85.1399Z" fill="#F9FBFC"/>
</g>
<defs>
<clipPath id="clip0_48_323">
<rect width="111.997" height="109.688" fill="white" transform="translate(0.00170898)"/>
</clipPath>
</defs>
</svg>
