<svg width="163" height="30" viewBox="0 0 163 30" fill="none" xmlns="http://www.w3.org/2000/svg">
<g clip-path="url(#clip0_1_841)">
<path d="M73.3856 12.2185C73.3856 8.67488 71.2209 6.41515 67.5619 6.41515H61.0681V24.3902H65.4746V18.0989H67.5876C71.0921 18.0989 73.3856 15.7108 73.3856 12.2185ZM66.9692 10.1899C68.1803 10.1899 68.8759 11.0116 68.8759 12.2185C68.8759 13.4511 68.2061 14.3242 66.9175 14.3242H65.4746V10.1899H66.9692Z" fill="#080B1D"/>
<path d="M74.4058 17.6881C74.4058 21.7453 77.4466 24.724 81.7501 24.724C86.0275 24.724 89.1714 21.6939 89.1714 17.6367C89.1714 13.5538 86.1049 10.5751 81.7501 10.5751C77.5755 10.5751 74.4058 13.6052 74.4058 17.6881ZM78.7093 17.6881C78.7093 15.7108 79.9719 14.3499 81.7501 14.3499C83.5023 14.3499 84.868 15.6595 84.868 17.6367C84.868 19.5626 83.528 20.9493 81.7501 20.9493C79.9978 20.9493 78.7093 19.6397 78.7093 17.6881Z" fill="#080B1D"/>
<path d="M95.2847 24.724C98.3769 24.724 100.799 23.0292 100.799 20.2816C100.799 15.4027 94.5631 16.3785 94.5631 14.6837C94.5631 14.2728 94.9239 14.016 95.5423 14.016C96.599 14.016 97.3719 14.658 97.7842 15.0689L100.567 12.8862C99.7683 11.8077 98.2995 10.5751 95.7228 10.5751C92.7852 10.5751 90.5173 12.1415 90.5173 14.735C90.5173 19.6397 96.7021 18.972 96.7021 20.5127C96.7021 21.0006 96.3153 21.2574 95.4909 21.2574C94.1252 21.2574 93.2231 20.7181 92.5015 20.0762L90.0794 22.4129C90.8781 23.4914 92.7077 24.724 95.2847 24.724Z" fill="#080B1D"/>
<path d="M107.07 8.05859H102.766V10.9089H101.452V14.3755H102.766V19.1261C102.766 23.1319 104.622 24.5956 107.817 24.5956C108.899 24.5956 109.466 24.4415 109.466 24.4415V20.7695C109.183 20.7952 108.977 20.7952 108.745 20.7952C107.868 20.7952 107.07 20.5127 107.07 19.3315V14.3755H109.363V10.9089H107.07V8.05859Z" fill="#080B1D"/>
<path d="M124.143 12.2185C124.143 8.67488 121.979 6.41515 118.319 6.41515H111.826V24.3902H116.232V18.0989H118.345C121.85 18.0989 124.143 15.7108 124.143 12.2185ZM117.727 10.1899C118.938 10.1899 119.634 11.0116 119.634 12.2185C119.634 13.4511 118.964 14.3242 117.675 14.3242H116.232V10.1899H117.727Z" fill="#080B1D"/>
<path d="M130.163 10.9089H125.859V24.3902H130.163V10.9089ZM127.972 10.0872C129.338 10.0872 130.395 9.11142 130.395 7.77614C130.395 6.41515 129.338 5.43938 127.972 5.43938C126.606 5.43938 125.576 6.41515 125.576 7.77614C125.576 9.11142 126.606 10.0872 127.972 10.0872Z" fill="#080B1D"/>
<path d="M132.629 24.3902H136.932V5.82455H132.629V24.3902Z" fill="#080B1D"/>
<path d="M138.702 17.6881C138.702 21.7453 141.743 24.724 146.046 24.724C150.324 24.724 153.468 21.6939 153.468 17.6367C153.468 13.5538 150.401 10.5751 146.046 10.5751C141.872 10.5751 138.702 13.6052 138.702 17.6881ZM143.006 17.6881C143.006 15.7108 144.268 14.3499 146.046 14.3499C147.799 14.3499 149.164 15.6595 149.164 17.6367C149.164 19.5626 147.824 20.9493 146.046 20.9493C144.294 20.9493 143.006 19.6397 143.006 17.6881Z" fill="#080B1D"/>
<path d="M159.916 8.05859H155.613V10.9089H154.298V14.3755H155.613V19.1261C155.613 23.1319 157.468 24.5956 160.663 24.5956C161.745 24.5956 162.312 24.4415 162.312 24.4415V20.7695C162.029 20.7952 161.823 20.7952 161.591 20.7952C160.715 20.7952 159.916 20.5127 159.916 19.3315V14.3755H162.209V10.9089H159.916V8.05859Z" fill="#080B1D"/>
<path fill-rule="evenodd" clip-rule="evenodd" d="M1.18879 1.62076C0.72817 1.10257 1.09603 0.283401 1.78935 0.283401H45.9583C49.8275 0.283401 52.9643 3.42002 52.9643 7.28925V22.9823C52.9643 26.8515 49.8275 29.9882 45.9583 29.9882H24.2626C23.268 29.9882 22.3209 29.5628 21.6602 28.8196L19.404 26.2814C18.9434 25.7632 19.3112 24.944 20.0046 24.944H45.9583C47.0417 24.944 47.92 24.0657 47.92 22.9823V7.28925C47.92 6.20588 47.0417 5.32762 45.9583 5.32762H6.04739C5.05282 5.32762 4.10572 4.90229 3.44496 4.15894L1.18879 1.62076Z" fill="#02A99B"/>
<path fill-rule="evenodd" clip-rule="evenodd" d="M20.325 0.0825195L33.2427 14.1253C33.5735 14.4851 34.1405 14.4877 34.4748 14.131L45.842 1.99983L49.5227 5.44882L38.1557 17.58C35.8159 20.0771 31.847 20.0588 29.5301 17.5403L16.6126 3.49748L20.325 0.0825195Z" fill="#02A99B"/>
<path fill-rule="evenodd" clip-rule="evenodd" d="M11.0092 14.514C10.5454 13.9966 10.9126 13.1742 11.6075 13.1742H19.6784C20.418 13.1742 21.0176 13.7738 21.0176 14.5134V16.8792C21.0176 17.6188 20.418 18.2184 19.6784 18.2184H15.2865C14.6775 18.2184 14.0973 17.9593 13.6909 17.5058L11.0092 14.514Z" fill="#02A99B"/>
</g>
<defs>
<clipPath id="clip0_1_841">
<rect width="162.312" height="29.9984" fill="white"/>
</clipPath>
</defs>
</svg>
